<svg width="62" height="20" viewBox="0 0 62 20" fill="none" xmlns="http://www.w3.org/2000/svg">
<g clip-path="url(#clip0_138_8589)">
<g clip-path="url(#clip1_138_8589)">
<path d="M26.6105 0.0121139L16.2295 7.80136C15.7416 5.88548 14.614 4.18251 13.0245 2.96084C11.435 1.73917 9.47395 1.06828 7.45043 1.0539H0V18.9582H7.45043C9.48473 18.985 11.4668 18.3294 13.0648 17.1012C14.6629 15.8729 15.7801 14.1465 16.2295 12.2108L26.6105 20L36.9914 12.2108V18.9582H48.701V15.3241H40.9773V1.04179H36.7182V7.78921L26.8712 15.5784L24.7479 13.7614L29.541 10.1272L34.5948 6.23864L31.6643 3.90066L21.8174 11.4234L19.6939 9.60629L29.541 2.33797L26.6105 0V0.0121139ZM3.98598 4.67595H7.17728C7.83765 4.6772 8.48998 4.8177 9.08955 5.08782C9.69856 5.36108 10.247 5.74791 10.7038 6.22653C11.1846 6.73029 11.5638 7.318 11.8214 7.95879C12.3509 9.32071 12.3509 10.8246 11.8214 12.1866C11.5805 12.8254 11.2228 13.4165 10.7659 13.9309C10.3217 14.4366 9.7767 14.8488 9.16402 15.1424C8.53296 15.4396 7.84082 15.5929 7.14 15.5906H3.98598V4.68806V4.67595ZM61.9876 15.3241V18.9582H50.2904V1.04179H54.5496V15.3241H62H61.9876Z" fill="white" fill-opacity="0.8"/>
</g>
</g>
<defs>
<clipPath id="clip0_138_8589">
<rect width="62" height="20" fill="white"/>
</clipPath>
<clipPath id="clip1_138_8589">
<rect width="62" height="20" fill="white"/>
</clipPath>
</defs>
</svg>
