<svg width="120" height="23" viewBox="0 0 120 23" fill="none" xmlns="http://www.w3.org/2000/svg">
<g clip-path="url(#clip0_138_8639)">
<g clip-path="url(#clip1_138_8639)">
<path fill-rule="evenodd" clip-rule="evenodd" d="M10.3519 15.6963L13.6927 19.1099L10.9058 22.0783C10.0021 23.0408 8.53653 23.0408 7.6328 22.0783L0.677796 14.6707C-0.225932 13.7079 -0.225932 12.1473 0.677796 11.1848C1.58181 10.2223 3.04705 10.2223 3.95077 11.1848L9.26929 16.8494L10.3519 15.6963ZM11.2203 14.7714L14.1793 11.6198L17.452 15.1058L14.7273 18.0079L11.2203 14.7714Z" fill="#CECCD3"/>
<path fill-rule="evenodd" clip-rule="evenodd" d="M24.6085 17.9425L21.1213 14.6847L29.316 5.95676C30.2198 4.99423 31.685 4.99423 32.589 5.95676C33.4927 6.91929 33.4927 8.47986 32.589 9.4427L24.6085 17.9425ZM23.524 19.0975L20.7254 22.0782C19.8214 23.0407 18.3562 23.0407 17.4524 22.0782L5.58766 9.44146C4.68393 8.47862 4.68393 6.91806 5.58766 5.95553C6.49139 4.99269 7.95662 4.99269 8.86064 5.95553L19.0889 16.8493L20.2393 15.6241L23.524 19.0975Z" fill="#CECCD3"/>
<path fill-rule="evenodd" clip-rule="evenodd" d="M19.5801 13.8853L22.8376 10.3832L28.9087 16.8493L34.226 11.1859C35.13 10.2234 36.5953 10.2234 37.499 11.1859C38.4027 12.1488 38.4027 13.7093 37.499 14.6719L30.5452 22.0782C29.6414 23.0407 28.1762 23.0407 27.2725 22.0782L19.5801 13.8853ZM18.2307 12.4481L10.4977 4.21191C9.59392 3.24938 9.59392 1.68881 10.4977 0.726279C11.4017 -0.236559 12.8669 -0.236559 13.7706 0.726279L21.5117 8.97097L18.2307 12.4481Z" fill="#CECCD3"/>
<path fill-rule="evenodd" clip-rule="evenodd" d="M27.6792 0.727513C26.7755 -0.235017 25.3103 -0.235017 24.4063 0.727513L14.1791 11.6201L17.4521 15.106L27.6792 4.21345C28.583 3.25061 28.583 1.69004 27.6792 0.727513Z" fill="#CECCD3"/>
<path fill-rule="evenodd" clip-rule="evenodd" d="M50.1576 2.42991H47.3116V20.2353H57.7393V17.5463H50.1576V2.42991ZM63.8987 7.78363C65.6291 7.78363 66.7902 8.53461 67.4277 9.45516L67.5643 8.02588H70.0233V20.2353H67.5643L67.4277 18.806C66.7902 19.7266 65.6291 20.4775 63.8987 20.4775C60.7795 20.4775 58.6621 17.7886 58.6621 14.1306C58.6621 10.4484 60.7795 7.78363 63.8987 7.78363ZM64.4907 10.3515C62.7148 10.3515 61.4398 11.8292 61.4398 14.1306C61.4398 16.432 62.7148 17.9097 64.4907 17.9097C65.8567 17.9097 66.6764 17.1345 67.2911 16.0928V12.1684C66.6764 11.1267 65.8567 10.3515 64.4907 10.3515ZM76.9112 3.93186H74.1791V8.02588H72.0161V10.4968H74.1791V15.9232C74.1791 18.8787 75.8411 20.4775 78.4594 20.4775C79.5978 20.4775 80.4402 20.1384 81.0094 19.7508L80.2808 17.4736C79.9393 17.6917 79.4384 17.8612 78.7099 17.8612C77.6398 17.8612 76.9112 17.1345 76.9112 15.899V10.4968H80.3719V8.02588H76.9112V3.93186ZM86.3264 3.93186H83.5942V8.02588H81.4313V10.4968H83.5942V15.9232C83.5942 18.8787 85.2563 20.4775 87.8746 20.4775C89.013 20.4775 89.8554 20.1384 90.4246 19.7508L89.696 17.4736C89.3545 17.6917 88.8536 17.8612 88.125 17.8612C87.055 17.8612 86.3264 17.1345 86.3264 15.899V10.4968H89.7871V8.02588H86.3264V3.93186ZM94.9902 8.02588H92.2581V20.2353H94.9902V8.02588ZM93.6241 2.33301C92.6679 2.33301 91.9393 3.08398 91.9393 4.12566C91.9393 5.16733 92.6679 5.91831 93.6241 5.91831C94.6032 5.91831 95.3317 5.16733 95.3317 4.12566C95.3317 3.08398 94.6032 2.33301 93.6241 2.33301ZM103.244 7.78363C99.7152 7.78363 97.3701 10.4484 97.3701 14.1306C97.3701 17.7886 99.738 20.4775 103.267 20.4775C105.339 20.4775 106.91 19.4843 107.934 17.7886L105.976 16.1655C105.43 17.1345 104.542 17.9339 103.29 17.9339C101.263 17.9339 100.148 16.2624 100.148 14.1306C100.148 11.9746 101.218 10.3273 103.267 10.3273C104.542 10.3273 105.384 11.1025 105.908 12.0715L107.889 10.4726C106.864 8.77686 105.339 7.78363 103.244 7.78363ZM114.617 7.78363C118.146 7.78363 119.877 10.5937 119.877 14.0095V15.0269H111.771C111.84 16.9649 112.933 18.0308 114.845 18.0308C116.188 18.0308 117.167 17.401 117.691 16.6258L119.581 18.2731C118.442 19.7266 116.94 20.4775 114.822 20.4775C111.271 20.4775 108.994 17.8128 108.994 14.1548C108.994 10.4726 111.316 7.78363 114.617 7.78363ZM114.572 10.1092C112.955 10.1092 111.863 11.2478 111.771 12.9436H117.19C117.122 11.272 116.211 10.1092 114.572 10.1092Z" fill="white" fill-opacity="0.8"/>
</g>
</g>
<defs>
<clipPath id="clip0_138_8639">
<rect width="120" height="22.8" fill="white"/>
</clipPath>
<clipPath id="clip1_138_8639">
<rect width="120" height="22.8" fill="white"/>
</clipPath>
</defs>
</svg>
