<svg width="143" height="13" viewBox="0 0 143 13" fill="none" xmlns="http://www.w3.org/2000/svg">
<g clip-path="url(#clip0_138_8613)">
<g clip-path="url(#clip1_138_8613)">
<path d="M27.5986 12.1979C27.5986 12.1013 27.5986 11.9564 27.5986 11.8599C27.5441 11.8599 24.0014 12.053 22.2574 12.053C19.9683 12.053 16.6982 12.0048 16.6982 12.0048L1.65558 11.9082C1.65558 11.8599 1.65558 11.6668 1.65558 11.6185L16.7527 11.5702C16.7527 11.5702 20.0228 11.6185 22.3119 11.6185C24.0559 11.6185 27.5441 11.6185 27.5986 11.6185C27.5986 11.4736 27.5441 11.2321 27.5441 11.039C27.4896 11.039 24.0014 11.2804 22.3119 11.2804C20.0228 11.2804 16.7527 11.1356 16.7527 11.1356H12.883L7.7598 10.9907H1.71008C1.71008 10.9425 1.76459 10.7493 1.76459 10.701C1.98259 10.7493 2.1461 10.7976 2.90913 10.7976C3.89017 10.7976 4.32619 10.6044 4.32619 10.6044C4.32619 10.6044 5.03471 10.7976 5.96122 10.7976C6.39725 10.7976 7.37833 10.4112 7.97782 10.5561C8.95889 10.7976 9.34036 10.4112 9.34036 10.4112C9.34036 10.4112 9.55838 10.6527 9.99441 10.7493C10.3214 10.7976 10.7574 10.6044 10.7574 10.6044C10.7574 10.6044 11.3024 10.9424 12.883 10.9424C14.7906 10.9424 15.3356 10.025 15.3356 10.025H15.3901C15.3901 10.025 15.3356 10.2664 15.4446 10.4596C15.6626 10.8459 16.2621 10.8941 16.2621 10.8941C16.2076 9.83182 16.6982 9.1075 16.6982 9.1075H16.7527L16.6437 9.39718C16.4257 10.1698 16.8072 10.8459 16.8072 10.8459L16.9706 10.7493C16.9706 10.7493 16.8072 10.2664 16.9706 9.59034C17.1342 8.91434 17.4067 8.57629 17.4067 8.57629H17.5157C17.5157 8.57629 17.3522 9.1075 17.3522 9.49376C17.3522 9.83182 17.5702 10.6527 18.2787 10.8941C18.8237 11.0873 19.2598 10.6527 19.2598 10.6527C19.2598 10.6527 20.4588 10.9424 21.4399 10.9424C23.7834 10.9424 24.3285 10.6044 24.3285 10.6044C24.3285 10.6044 24.492 10.8459 25.691 10.8459C26.3995 10.8459 26.9445 10.7976 27.2716 10.7493C27.3806 10.7493 27.4351 10.7493 27.4896 10.701C27.4896 10.5078 27.4351 10.363 27.3806 10.1698C26.7265 6.9345 24.601 4.1338 21.6579 2.34714L21.4944 2.78173C24.383 4.47182 26.5085 7.12766 27.108 10.2664C26.781 10.363 26.2905 10.5078 25.691 10.5078C24.7645 10.5078 24.5465 10.2664 24.5465 10.2664C24.5465 10.2664 24.2195 10.4596 23.6199 10.4596C23.0749 10.4596 22.6934 10.1215 22.6934 10.1215C22.6934 10.1215 22.1484 10.6044 21.1673 10.6044C20.0228 10.6044 19.4233 9.97666 19.2052 9.68692C18.9872 9.39718 18.8782 9.15576 18.8782 9.15576H18.8237C18.8237 9.25234 18.8782 9.39718 18.9327 9.54208C19.0962 9.9284 19.2052 10.025 19.2598 10.1215C19.3143 10.1698 19.3688 10.3147 19.2052 10.363C19.0962 10.4112 19.0417 10.3147 18.9872 10.2664C18.9327 10.1698 18.7147 9.9284 18.6057 9.54208C18.4422 9.1075 18.4423 8.81776 18.3877 8.57629H18.2787C18.2242 8.76945 18.2242 9.1075 18.2242 9.49376C18.2787 9.9284 18.3877 10.2181 18.4422 10.3147C18.4422 10.3147 18.4968 10.363 18.4968 10.4112C18.4968 10.5561 18.3877 10.6044 18.2787 10.6044C18.1697 10.6044 18.0607 10.5078 18.0062 10.4112C17.5157 9.68692 18.1152 8.23829 18.2787 7.80371C18.5512 7.17597 18.6057 6.54818 18.6057 6.54818C18.6057 6.54818 18.9327 6.06534 19.0962 5.72728C19.3143 5.29272 19.4778 4.90641 19.6413 4.76155C19.8593 4.56839 20.2408 4.08551 20.6223 3.45777C20.6768 3.36119 21.0038 2.68515 21.0583 2.54029C21.1128 2.44372 21.1673 2.29885 21.2218 2.20228C21.3854 1.62282 21.5489 0.946784 21.5489 0.850211C21.5489 0.705347 21.2763 0.608768 21.2763 0.608768C21.2763 0.608768 21.0038 0.512192 20.8403 0.512192C20.7313 0.512192 20.6223 0.608768 20.5133 0.657058C20.3498 0.705347 20.2953 0.657058 20.2953 0.657058C20.2953 0.657058 20.0773 0.560479 19.9683 0.608768C19.8593 0.608768 19.7503 0.753631 19.6413 0.753631C19.4778 0.801921 19.4233 0.801921 19.4233 0.801921C19.4233 0.801921 19.2598 0.753631 19.1507 0.753631C19.0417 0.801921 18.9327 0.850211 18.7147 0.995074C17.1887 0.512192 15.6081 0.270752 13.973 0.270752C6.50626 0.270752 0.402034 5.58244 0.29303 12.1979C0.29303 12.2462 0.29303 12.5359 0.29303 12.5359H27.5986C27.5986 12.5359 27.5986 12.2462 27.5986 12.1979ZM10.2124 9.7835C10.1579 9.7835 10.2124 9.73524 10.1579 9.73524C10.5394 8.67287 11.4115 6.49992 12.8285 4.85812C12.992 4.90641 13.101 5.00298 13.2645 5.05127C12.229 6.06534 10.8664 8.04513 10.2124 9.7835ZM11.0299 10.1215C11.3024 9.15576 12.011 7.12766 13.5371 5.19614C13.7006 5.29272 13.8095 5.34101 13.973 5.4376C12.9375 6.64476 11.684 8.57629 11.1389 10.1698C11.0844 10.1698 11.0844 10.1215 11.0299 10.1215ZM12.12 10.363C12.0655 10.363 12.12 10.363 12.0655 10.363C12.2835 9.59034 12.883 7.56223 14.3001 5.58244C14.4636 5.67902 14.5726 5.72728 14.6816 5.82386C13.7006 7.12765 12.6105 8.91434 12.12 10.363ZM13.1555 10.363C13.101 10.363 13.101 10.363 13.101 10.363C13.319 9.63866 13.8095 7.85197 15.0086 6.06534C15.1721 6.16192 15.3356 6.2585 15.3901 6.35508C14.5181 7.51397 13.5916 9.05918 13.1555 10.363ZM16.7527 7.12766C16.4802 7.12766 16.0986 7.03108 15.9896 6.83792C16.0441 7.17597 16.4802 7.46565 16.8617 7.46565C16.7527 7.46565 16.6982 7.51397 16.5892 7.51397C16.0986 7.51397 15.6626 7.12765 15.6626 6.69308C15.6626 6.64476 15.6626 6.54818 15.6626 6.49992C16.0441 6.78965 16.8617 7.17597 17.3522 6.5965V6.64476C17.2977 6.88623 17.0251 7.12766 16.7527 7.12766ZM18.2787 5.24443C18.2787 5.38929 18.1697 5.4376 18.0607 5.48586C18.0062 5.53418 17.8427 5.58244 17.8427 5.6307H17.7882C17.7882 5.6307 17.7337 5.58244 17.6792 5.58244C17.6792 5.53418 17.6792 5.53418 17.6792 5.53418V5.48586V5.38929C17.6792 5.38929 17.6247 5.29272 17.6792 5.19614C17.6792 5.05127 17.8427 4.9547 17.8427 4.9547H17.8972C17.8972 4.9547 17.8427 5.05127 17.7882 5.14785C17.7882 5.19614 17.7337 5.34101 17.7882 5.4376V5.53418L17.8427 5.58244L17.8972 5.53418C18.0062 5.48586 18.0062 5.4376 18.0062 5.4376C18.0062 5.4376 17.8972 5.34101 17.9517 5.24443C18.0062 5.14785 18.1697 5.14785 18.1697 5.14785C18.2242 5.00298 18.1697 4.90641 18.1697 4.90641L18.2787 4.9547C18.2242 4.90641 18.2787 5.05127 18.2787 5.24443ZM18.9872 1.13994C19.1507 1.09165 19.2052 0.995074 19.3688 0.946784C19.5323 0.898495 19.6413 0.946784 19.7503 0.946784C19.8593 0.946784 20.0228 0.801921 20.1318 0.801921C20.2408 0.801921 20.2953 0.850211 20.4043 0.850211C20.4588 0.946784 20.7858 0.753631 20.8403 0.753631C20.8948 0.753631 21.1128 0.753631 21.0583 0.946784C21.0038 1.09165 20.8948 1.52624 20.6768 2.1057C20.6223 2.25056 20.5133 2.44372 20.4043 2.63687C20.2953 2.83002 20.1863 3.07146 20.0228 3.26461C19.4233 4.1338 18.8237 3.94065 17.6792 4.42353C16.7527 4.80984 16.3712 5.05127 16.2621 5.19614C16.1531 5.09956 16.0986 5.09956 15.9896 5.05127C16.1531 4.90641 16.5347 4.66497 17.2977 4.32695C18.1152 3.94065 19.4778 3.45777 19.7503 3.02318C19.7503 2.97489 19.7503 2.97489 19.7503 2.9266C19.4233 3.11975 19.1507 3.21632 19.0417 3.3129C17.7337 3.89236 17.2432 4.03723 16.6437 4.32695C16.3712 4.47182 15.9351 4.66497 15.6626 4.85812C15.6081 4.80984 15.4991 4.76155 15.4446 4.71326C15.7171 4.5201 16.0986 4.32695 16.4802 4.1338C17.0796 3.89236 17.5702 3.65092 18.9872 2.9266C19.0962 2.87831 19.8048 2.49201 20.3498 2.1057C20.3498 2.05741 20.3498 2.00912 20.4043 1.96084C19.9138 2.20228 18.3332 2.97489 18.0062 3.11975C16.6982 3.69921 16.7527 3.65092 16.1531 3.94065C15.7716 4.1338 15.3901 4.32695 15.1176 4.5201C15.0631 4.47182 14.9541 4.42353 14.8996 4.37524C15.2266 4.18209 15.4991 3.98894 15.9351 3.79578C16.5347 3.50606 16.5892 3.45777 17.9517 2.87831C18.6057 2.58858 19.8048 1.86426 20.4588 1.52624C20.4588 1.47795 20.4588 1.47795 20.4588 1.42967C19.8048 1.76769 17.8972 2.63687 17.6247 2.78173C16.3167 3.3129 16.1531 3.36119 15.5536 3.65092C15.2266 3.79578 14.8996 3.98894 14.6271 4.1338C14.5726 4.08551 14.5181 4.03723 14.4636 3.98894C14.6816 3.84407 15.0631 3.60263 15.5536 3.36119C16.1531 3.07146 16.2621 3.02318 17.5702 2.44372C17.7337 2.39543 18.3877 2.05741 18.9872 1.7194C19.1507 1.62282 19.3688 1.52624 19.5323 1.42967C19.6958 1.33309 19.8048 1.23652 19.9138 1.18823L19.8593 1.13994C19.5868 1.23652 19.2052 1.42966 19.0962 1.47795C18.3877 1.81597 17.5157 2.20228 17.2432 2.29885C15.9351 2.87831 15.7716 2.9266 15.1721 3.21632C14.8451 3.36119 14.4636 3.55435 14.2456 3.74749C14.191 3.69921 14.1365 3.65092 14.082 3.60263C14.3546 3.40948 14.7361 3.16804 15.1721 2.97489C15.7716 2.68515 15.8806 2.63687 17.1887 2.05741C17.4067 1.96084 17.6247 1.86426 17.7882 1.76769C17.8427 1.76769 18.4423 1.47795 18.9872 1.13994ZM14.5181 0.850211C15.7716 0.850211 17.0251 0.995074 18.1697 1.33309C17.9517 1.47795 17.6247 1.62282 17.1887 1.81597C15.6626 2.49201 15.4991 2.54029 14.8451 2.83002C14.4091 3.02318 14.082 3.21632 13.8095 3.40948C13.8095 3.40948 13.5371 3.07146 13.3735 2.97489C13.21 2.87831 12.8285 2.78173 12.7195 2.73344C12.5015 2.63687 12.447 2.54029 12.12 2.44372C11.8475 2.34714 11.6295 2.39543 11.466 2.39543C11.3024 2.34714 11.1389 2.29885 10.8664 2.29885C10.7029 2.29885 10.4849 2.39543 10.3214 2.39543C10.1034 2.39543 9.9399 2.34714 9.77639 2.34714C9.61288 2.39543 9.39486 2.54029 9.17685 2.54029C9.01333 2.58858 8.79538 2.54029 8.68637 2.54029C8.57736 2.58858 8.30484 2.78173 8.14133 2.83002C8.03232 2.87831 7.70529 2.87831 7.7598 3.11975C7.7598 3.3129 8.25034 3.36119 8.25034 3.36119C8.25034 3.36119 10.3759 3.60263 12.447 4.56839C12.1745 4.90641 11.8475 5.24443 11.6295 5.6307C11.466 5.58244 11.2479 5.53418 11.1389 5.53418C10.9209 5.53418 10.7029 5.63071 10.5394 5.58244C10.2124 5.58244 10.2124 5.53418 9.8309 5.58244C9.55838 5.63071 9.55838 5.67902 9.34036 5.72728C9.17685 5.7756 9.01333 5.72728 8.74087 5.7756C8.63186 5.82386 8.41385 6.01702 8.25034 6.06534C8.14133 6.1136 7.92331 6.1136 7.7598 6.21018C7.65079 6.30676 7.65079 6.40334 7.37833 6.49992C7.21482 6.5965 7.10581 6.54818 6.9423 6.69308C6.83329 6.88623 6.83329 7.03108 6.56077 7.22423C6.23374 7.46565 6.23374 7.65881 6.28825 7.70713C6.39725 7.90029 6.88779 7.70713 6.88779 7.70713C6.88779 7.70713 8.63186 7.17597 10.7029 7.07939C10.1579 8.04513 9.72189 8.9626 9.44937 9.59034C9.39486 9.73524 9.34036 9.88008 9.28586 9.97666C9.23135 9.97666 9.23135 9.97666 9.23135 9.97666C9.12234 9.88008 9.12234 9.73524 9.17685 9.39718C9.23135 9.05918 9.55837 8.38313 9.66738 8.23829H9.55838C9.44937 8.38313 9.12234 8.91434 9.06784 9.01092C8.95889 9.20408 8.90438 9.25234 8.68637 9.68692C8.63186 9.7835 8.52286 9.97666 8.35934 9.97666C8.25034 9.97666 8.14133 9.9284 8.14133 9.83182C8.14133 9.7835 8.19583 9.68692 8.25034 9.68692C8.52286 9.3006 8.74087 8.91434 8.79538 8.72118H8.68637C8.68637 8.72118 7.92331 10.2664 6.28825 10.2664C5.74324 10.2664 5.14371 10.025 5.14371 10.025C5.14371 10.025 4.38068 10.3147 3.34515 10.3147C2.52762 10.3147 2.0371 10.1698 1.81909 10.1215C2.96363 4.90641 8.03232 0.850211 14.5181 0.850211Z" fill="white" fill-opacity="0.8"/>
<path d="M52.3423 12.2462L52.2333 12.1979C51.5792 11.9082 51.3612 11.0873 51.0342 10.363L47.7096 2.54028H44.5485V2.78173L44.712 2.83002C44.712 2.83002 44.8755 2.8783 44.93 2.92659C45.0935 3.02316 45.257 3.21632 45.0389 3.6992C45.0389 3.94064 44.93 4.13379 44.93 4.13379L42.3139 10.363C42.0413 11.039 41.8233 11.9082 41.1693 12.1979L40.9513 12.2945V12.5359H44.494V12.2945L44.2214 12.1979C43.8944 12.1013 43.8399 11.8116 44.1669 10.9907L44.5485 9.88006H48.3091C48.4181 10.1215 48.5271 10.4595 48.6906 10.9424C48.8541 11.4253 49.1266 12.0531 48.7451 12.2462L48.5271 12.3427V12.5842H52.3423V12.2462ZM47.7641 8.23827H45.257L46.5106 5.14784L47.7641 8.23827Z" fill="white" fill-opacity="0.8"/>
<path d="M75.3428 2.54028V2.78173L75.6153 2.8783C76.0514 3.02316 75.9969 3.94064 75.9969 4.5201V10.5561C75.9969 11.039 75.9969 12.0531 75.6153 12.1979L75.3428 12.2945V12.5359H78.9395V12.2945L78.667 12.1979C78.2309 12.0531 78.2855 11.039 78.2855 10.5561V4.5201C78.2855 3.6992 78.3945 2.97488 78.667 2.8783L78.9395 2.78173V2.54028H75.3428Z" fill="white" fill-opacity="0.8"/>
<path d="M61.8252 2.54028V2.78173L62.0978 2.8783C62.5338 3.02316 62.4793 3.94064 62.4793 4.5201V10.5561C62.4793 11.039 62.4793 12.0531 62.0978 12.1979L61.8252 12.2945V12.5359H65.4225V12.2945L65.15 12.1979C64.714 12.0531 64.7685 11.039 64.7685 10.5561V4.5201C64.7685 3.6992 64.8775 2.97488 65.15 2.8783L65.4225 2.78173V2.54028H61.8252Z" fill="white" fill-opacity="0.8"/>
<path d="M41.606 1.67117C40.7885 0.946853 39.5349 0.560547 38.1724 0.560547H33.5397V0.801989L33.7577 0.850279C34.3573 1.09172 34.3028 2.3955 34.3028 3.36126V9.68697V9.92845C34.3028 10.6528 34.3028 11.9566 33.7577 12.1497L33.5397 12.2463V12.4877H37.7909V12.2463L37.6274 12.1497C36.8643 11.7151 36.8643 10.7493 36.8643 9.73529V7.6106L37.3004 7.7555C37.3004 7.7555 38.0089 7.99692 38.6629 7.99692C40.625 7.99692 42.7505 6.78971 42.7505 4.18216C42.7505 3.21639 42.3691 2.34721 41.606 1.67117ZM37.4639 7.07945L37.0824 7.12771H36.8643V2.63694C37.1369 2.58865 37.4639 2.58865 37.8999 2.58865C38.7719 2.58865 39.4804 2.7818 39.8619 3.16811C40.2435 3.50612 40.407 3.94071 40.407 4.56846C40.407 6.06539 38.8809 6.98287 37.4639 7.07945Z" fill="white" fill-opacity="0.8"/>
<path d="M99.5421 0.560637H97.6345H92.184V0.850364L92.5111 0.946943C93.0016 1.1401 93.0016 2.25072 93.0016 2.87847V10.1217C93.0016 10.7011 93.0016 11.9083 92.5111 12.1015L92.184 12.1981V12.4878H96.2719V12.1981L95.9448 12.1015C95.4543 11.9083 95.4543 10.7494 95.4543 10.1217V7.75554H97.8525C97.8525 7.75554 98.8881 7.65896 99.0516 8.04528L99.1061 8.19018L99.3786 8.23844L99.5421 5.05143H99.1606L99.1061 5.24458C98.9971 5.48601 98.0705 5.58259 97.798 5.53433H95.3998C95.3998 4.47197 95.3998 3.16819 95.3998 2.58873H98.343C99.0516 2.58873 99.4331 2.7336 99.5421 3.07162L99.596 3.26477H99.923L100.686 0.415771C100.795 0.512348 99.814 0.560637 99.5421 0.560637Z" fill="white" fill-opacity="0.8"/>
<path d="M60.6262 9.83177L60.5717 9.88008C60.4627 9.97666 60.3536 10.0249 60.3536 10.0249C59.6996 10.4112 58.6095 10.8458 57.5197 10.8458C56.6477 10.8458 55.9392 10.6044 55.3396 10.1215C54.6311 9.49377 54.2496 8.47971 54.2496 7.32082C54.2496 5.48587 55.4486 4.23035 57.1927 4.23035C58.0103 4.23035 58.8275 4.47179 59.6451 4.95467L59.8631 5.09954L60.2991 5.34098V4.90639V2.92658V2.73342L59.9721 2.68513C58.882 2.44369 58.0103 2.29883 57.2472 2.29883C55.7211 2.29883 54.4131 2.78171 53.4321 3.6509C52.3965 4.56837 51.797 5.96871 51.797 7.51392C51.797 9.10745 52.342 10.4112 53.3776 11.3287C54.4131 12.2462 55.9392 12.7291 57.6832 12.7291C58.5552 12.7291 59.3726 12.5842 60.0266 12.2462H60.0811L60.1901 12.1979L60.2446 12.1013L61.0077 9.7835H60.6262V9.83177Z" fill="white" fill-opacity="0.8"/>
<path d="M88.4772 9.83177L88.1501 10.0249C87.4961 10.4112 86.406 10.8458 85.3159 10.8458C84.4439 10.8458 83.7353 10.6044 83.1358 10.1215C82.4272 9.49377 82.0457 8.47971 82.0457 7.32082C82.0457 5.48587 83.2448 4.23035 84.9889 4.23035C85.8065 4.23035 86.624 4.47179 87.4416 4.95467L88.0956 5.34098V2.92658V2.73342L87.8231 2.68513C86.733 2.44369 85.861 2.29883 85.0979 2.29883C83.5718 2.29883 82.2637 2.78171 81.2826 3.6509C80.2471 4.56837 79.6475 5.96871 79.6475 7.51392C79.6475 9.10745 80.1926 10.4112 81.2281 11.3287C82.2637 12.2462 83.7898 12.7291 85.5339 12.7291C86.406 12.7291 87.2236 12.5842 87.8776 12.2462L88.0411 12.1979L88.8587 9.7835H88.4772V9.83177Z" fill="white" fill-opacity="0.8"/>
<path d="M73.4346 2.54042H70.4374H66.8402V2.78186L67.1127 2.87844C67.5487 3.0233 67.4942 3.94078 67.4942 4.52023V10.5562C67.4942 11.0391 67.4942 12.0532 67.1127 12.1981L66.8402 12.2946V12.5361H70.4374V12.2946L70.1649 12.1981C69.7289 12.0532 69.7834 11.0391 69.7834 10.5562V8.57643H71.7455C71.7455 8.57643 72.617 8.52817 72.726 8.81785L72.7805 8.96275L72.9985 9.01101L73.162 6.35517H72.8895L72.835 6.50006C72.7805 6.69322 71.9635 6.7898 71.7455 6.74148H69.7289C69.7289 5.87233 69.7289 4.76168 69.7289 4.27879H72.399C72.9985 4.27879 73.3256 4.42366 73.4346 4.6651L73.4891 4.80996H73.7616L74.4156 2.44385C74.5246 2.44385 73.6526 2.54042 73.4346 2.54042Z" fill="white" fill-opacity="0.8"/>
<path d="M119.652 2.54048V2.78191L119.87 2.87849C120.361 3.16822 120.415 3.60282 120.415 4.42371V9.01108C118.889 7.07955 115.511 2.49219 115.511 2.49219H112.894V2.73363L113.112 2.8302C113.603 3.11994 113.657 3.60282 113.657 4.42371V10.4114C113.657 11.2323 113.657 11.8601 113.112 12.1498L112.949 12.2464V12.4878H116.274V12.2464L116.056 12.1498C115.565 12.0532 115.565 11.2323 115.565 10.4114V6.06549L118.835 10.2183C119.434 10.9909 120.415 12.1015 121.451 12.3912C122.268 12.6327 122.432 12.5844 122.432 12.5844V4.472C122.432 3.6511 122.432 3.16822 122.977 2.87849L123.195 2.78191V2.54048H119.652Z" fill="white" fill-opacity="0.8"/>
<path d="M133.06 3.98912C131.97 3.02336 130.335 2.49219 128.319 2.49219H124.231V2.73363L124.449 2.78191L124.558 2.8302C125.048 2.97507 124.939 3.98912 124.939 4.52029V10.5563C124.939 11.2806 124.939 11.9084 124.34 12.2464L124.176 12.343V12.5361H128.209C131.915 12.5361 134.531 10.4597 134.531 7.46586C134.531 6.06549 134.041 4.85831 133.06 3.98912ZM131.152 10.0251C130.389 10.6529 129.354 11.0392 128.046 11.0392C127.773 11.0392 127.61 10.9909 127.283 10.9426V4.18227C127.719 4.0857 127.937 4.03741 128.319 4.03741C129.572 4.03741 130.498 4.32714 131.152 4.9066C131.806 5.48607 132.133 6.45181 132.133 7.6107C132.133 8.5765 131.752 9.44565 131.152 10.0251Z" fill="white" fill-opacity="0.8"/>
<path d="M110.877 10.701V4.42352C110.877 3.6992 110.877 3.02316 111.422 2.8783L111.64 2.83002L111.477 2.54028H107.77V2.78173L107.988 2.83002C108.533 3.02316 108.479 3.79577 108.479 4.32694V9.10748C108.479 9.59032 108.479 9.8318 108.206 10.1698C107.77 10.701 106.953 11.039 106.081 11.039C105.373 11.039 104.882 10.8941 104.501 10.5561C104.01 10.1698 103.792 9.44548 103.792 8.52801V4.27865C103.792 3.6992 103.792 2.92659 104.283 2.78173L104.501 2.73344V2.54028H100.685V2.78173L100.903 2.83002C101.394 2.97488 101.449 3.89235 101.394 4.61668V8.72116C101.394 9.73522 101.394 10.7493 102.321 11.6667C103.084 12.3911 104.228 12.7774 105.536 12.7774C106.462 12.7774 107.607 12.3427 108.424 11.7633V12.5359H111.531V12.2945L111.313 12.2462C110.877 12.0531 110.823 11.4253 110.877 10.701Z" fill="white" fill-opacity="0.8"/>
<path d="M142.707 9.49383C142.707 10.2664 142.325 11.039 141.617 11.6185C140.799 12.3428 139.655 12.7291 138.401 12.7291C137.42 12.7291 136.493 12.5843 135.621 12.2945H135.567L135.458 12.2463V12.1497V12.1014L135.022 10.3147L134.967 10.025L134.913 9.78356H135.185L135.567 10.1698C136.384 10.8459 137.529 11.1356 138.565 11.1356C139.273 11.1356 140.309 10.701 140.309 9.97667C140.309 9.15577 139.437 8.76951 138.292 8.28661C136.93 7.70714 135.294 6.98282 135.294 5.14788C135.294 3.07149 137.475 2.34717 139.328 2.34717C140.145 2.34717 140.908 2.44375 141.617 2.68518H141.671L141.835 2.73347V2.87834V2.92663V4.18212V4.61671V4.90644L141.453 4.665L141.072 4.47184C140.745 4.2787 139.927 3.98897 139.219 3.98897C138.946 3.98897 138.347 4.03726 137.965 4.37527C137.802 4.52013 137.693 4.71329 137.693 5.00301C137.693 5.72735 138.674 6.16193 139.709 6.59651C141.017 7.17598 142.707 7.9003 142.707 9.49383Z" fill="white" fill-opacity="0.8"/>
</g>
</g>
<defs>
<clipPath id="clip0_138_8613">
<rect width="143" height="13" fill="white"/>
</clipPath>
<clipPath id="clip1_138_8613">
<rect width="143" height="13" fill="white"/>
</clipPath>
</defs>
</svg>
