<svg width="67" height="21" viewBox="0 0 67 21" fill="none" xmlns="http://www.w3.org/2000/svg">
<g clip-path="url(#clip0_138_8603)">
<g clip-path="url(#clip1_138_8603)">
<path d="M16.6289 20.9999L53.8825 17.5991H13.4L16.6289 20.9999Z" fill="white" fill-opacity="0.8"/>
<path d="M62.5198 3.5708C61.7556 3.5896 61.0128 3.84055 60.3807 4.29347V3.82586H57.8783V15.3886H60.3807V8.62951C60.3631 8.33338 60.4032 8.03659 60.4987 7.75744C60.5942 7.4783 60.743 7.22271 60.9358 7.00645C61.1287 6.79018 61.3616 6.61783 61.6201 6.50001C61.8787 6.38219 62.1574 6.32141 62.4391 6.32141C62.7208 6.32141 62.9996 6.38219 63.2581 6.50001C63.5167 6.61783 63.7495 6.79018 63.9424 7.00645C64.1353 7.22271 64.2841 7.4783 64.3795 7.75744C64.475 8.03659 64.5152 8.33338 64.4976 8.62951V15.4311H67V8.62951C67 5.82384 65.1837 3.5708 62.5198 3.5708Z" fill="white" fill-opacity="0.8"/>
<path d="M52.1067 3.52832C49.2007 3.52832 47.1422 6.20646 47.1422 9.60727C47.1422 13.1781 49.7254 15.6862 52.3489 15.6862C53.6808 15.6862 55.3356 15.2186 56.7483 13.0931L54.5284 11.7328C52.8332 14.3684 49.9675 13.0506 49.6447 10.3724H56.829C57.4748 6.29148 54.932 3.52832 52.1067 3.52832ZM49.8061 8.11941C50.3308 5.44128 53.8019 5.27124 54.2862 8.11941H49.8061Z" fill="white" fill-opacity="0.8"/>
<path d="M41.4271 11.9928C41.4049 12.5227 41.4842 13.0518 41.6604 13.5487C41.8366 14.0456 42.106 14.5 42.4525 14.8849C42.7991 15.2697 43.2157 15.5771 43.6775 15.7886C44.1393 16.0002 44.6368 16.1116 45.1404 16.1162C45.9912 16.0849 46.8221 15.8369 47.5621 15.3936L45.9476 13.098C45.6997 13.2843 45.4045 13.388 45.1 13.3956C44.9337 13.3906 44.7702 13.3496 44.6196 13.2751C44.469 13.2007 44.3346 13.0943 44.2247 12.9627C44.1149 12.831 44.032 12.677 43.9812 12.5101C43.9304 12.3432 43.9128 12.1671 43.9295 11.9928V7.01908H46.0687V4.25592H43.9295V1.36523H41.4271V4.25592H40.0952V7.01908H41.4271V11.9928Z" fill="white" fill-opacity="0.8"/>
<path d="M34.9935 15.6863C35.7577 15.6675 36.5006 15.4165 37.1326 14.9636V15.3887H39.635V3.82593H37.1326V10.6275C37.1502 10.9237 37.1101 11.2205 37.0146 11.4996C36.9191 11.7788 36.7703 12.0343 36.5775 12.2506C36.3846 12.4669 36.1517 12.6392 35.8932 12.757C35.6346 12.8749 35.3559 12.9356 35.0742 12.9356C34.7925 12.9356 34.5137 12.8749 34.2552 12.757C33.9967 12.6392 33.7638 12.4669 33.5709 12.2506C33.378 12.0343 33.2293 11.7788 33.1338 11.4996C33.0383 11.2205 32.9981 10.9237 33.0157 10.6275V3.82593H30.5133V10.6275C30.5133 13.4332 32.3296 15.6863 34.9935 15.6863Z" fill="white" fill-opacity="0.8"/>
<path d="M23.6113 10.67L27.3246 15.4312H30.7957L25.8312 9.26721L30.1095 3.82591H26.6385L23.6113 7.86437V0H21.0686V15.4312H23.6113V10.67Z" fill="white" fill-opacity="0.8"/>
<path d="M17.1536 14.8785V15.3886H19.6561V3.82589H17.1536V4.33601C16.4717 3.8177 15.6536 3.53545 14.8127 3.52832C11.9874 3.52832 9.80786 6.24897 9.80786 9.60727C9.80786 12.9656 11.947 15.6862 14.8127 15.6862C15.6546 15.6857 16.4746 15.4028 17.1536 14.8785ZM12.3506 9.64978C12.3506 7.82184 13.3597 6.3765 14.7723 6.3765C16.185 6.3765 17.1536 7.82184 17.1536 9.64978C17.1536 11.4777 16.185 12.9231 14.7723 12.9231C13.3597 12.9231 12.3506 11.4777 12.3506 9.64978Z" fill="white" fill-opacity="0.8"/>
<path d="M9.0006 5.90899C8.99953 4.59023 8.50167 3.32581 7.6163 2.3933C6.73093 1.4608 5.53041 0.936428 4.27831 0.935303H0V15.3887H2.62349V10.9252H4.43976L7.62831 15.3887H10.8976L7.02289 9.98996C7.64123 9.5288 8.14418 8.9166 8.48863 8.20584C8.83308 7.49507 9.00875 6.70694 9.0006 5.90899ZM4.31867 8.20453H2.62349V3.69846H4.31867C4.88601 3.69846 5.43012 3.93583 5.83129 4.35836C6.23246 4.78089 6.45783 5.35395 6.45783 5.9515C6.45783 6.54904 6.23246 7.12211 5.83129 7.54463C5.43012 7.96716 4.88601 8.20453 4.31867 8.20453Z" fill="white" fill-opacity="0.8"/>
</g>
</g>
<defs>
<clipPath id="clip0_138_8603">
<rect width="67" height="21" fill="white"/>
</clipPath>
<clipPath id="clip1_138_8603">
<rect width="67" height="21" fill="white"/>
</clipPath>
</defs>
</svg>
