<svg width="87" height="17" viewBox="0 0 87 17" fill="none" xmlns="http://www.w3.org/2000/svg">
<g clip-path="url(#clip0_138_8593)">
<g clip-path="url(#clip1_138_8593)">
<path d="M57.856 14.683C59.0091 14.7082 60.125 14.2657 60.9589 13.4524L62.4986 15.144C61.4813 16.2102 60.0752 16.9999 57.8835 16.9999C54.1285 16.9999 51.7051 14.4585 51.7051 11.0192C51.69 10.2484 51.824 9.48211 52.0994 8.76418C52.3748 8.04625 52.7862 7.39079 53.3101 6.8353C53.8339 6.27981 54.46 5.83519 55.1524 5.52689C55.8448 5.21858 56.59 5.05265 57.3454 5.03857H57.5535C61.281 5.03857 63.3941 7.9327 63.2095 11.9492H54.3878C54.702 13.6167 55.8489 14.679 57.856 14.679V14.683ZM60.5426 10.0211C60.3069 8.46583 59.3957 7.3194 57.5693 7.3194C56.802 7.27366 56.0464 7.52734 55.4557 8.02902C54.8649 8.5307 54.4831 9.24285 54.3878 10.0211H60.5426Z" fill="white" fill-opacity="0.8"/>
<path d="M0 14.5589L6.78325 7.52801H0.161038V5.31934H9.92546V7.57211L3.14221 14.603H10.0158V16.8077H0V14.5589Z" fill="white" fill-opacity="0.8"/>
<path d="M17.6318 14.683C18.785 14.7082 19.9009 14.2657 20.7348 13.4524L22.2744 15.144C21.2572 16.2102 19.851 16.9999 17.6593 16.9999C13.9044 16.9999 11.4809 14.4585 11.4809 11.0192C11.4658 10.2491 11.5996 9.48341 11.8745 8.766C12.1494 8.04859 12.5601 7.39348 13.0831 6.83809C13.6062 6.2827 14.2313 5.83792 14.9228 5.52916C15.6144 5.22039 16.3587 5.05369 17.1134 5.03857H17.3215C21.049 5.03857 23.1621 7.9327 22.9775 11.9492H14.1636C14.4778 13.6167 15.6247 14.679 17.6318 14.679V14.683ZM20.3184 10.0211C20.0828 8.46583 19.1715 7.3194 17.3451 7.3194C16.5779 7.27366 15.8223 7.52734 15.2315 8.02902C14.6408 8.5307 14.259 9.24285 14.1636 10.0211H20.3184Z" fill="white" fill-opacity="0.8"/>
<path d="M37.6162 11.0314C37.6162 7.35558 40.3067 5.05871 43.2683 5.05871C43.9789 5.04934 44.6828 5.19877 45.3308 5.49654C45.9788 5.7943 46.5551 6.23317 47.0193 6.78236V0H49.4152V16.7755H47.0193V15.1721C46.5639 15.7443 45.9881 16.2047 45.3347 16.519C44.6813 16.8333 43.967 16.9936 43.2447 16.988C42.4994 16.9822 41.7624 16.8267 41.076 16.5302C40.3896 16.2338 39.7671 15.8023 39.244 15.2603C38.721 14.7184 38.3077 14.0766 38.0277 13.3716C37.7478 12.6666 37.6066 11.9123 37.6123 11.1516C37.6123 11.1035 37.6123 11.0594 37.6123 11.0153L37.6162 11.0314ZM47.1528 10.9913C47.1378 10.0184 46.7466 9.09094 46.0645 8.41108C45.3824 7.73122 44.4647 7.35404 43.5113 7.3617C42.5578 7.36937 41.646 7.76127 40.9745 8.45202C40.303 9.14276 39.9262 10.0764 39.9262 11.0494C39.9262 12.0224 40.303 12.956 40.9745 13.6468C41.646 14.3375 42.5578 14.7294 43.5113 14.7371C44.4647 14.7448 45.3824 14.3676 46.0645 13.6877C46.7466 13.0079 47.1378 12.0804 47.1528 11.1075V10.9913Z" fill="white" fill-opacity="0.8"/>
<path d="M64.7611 14.3384L66.9292 13.188C67.2169 13.7095 67.6384 14.1411 68.1485 14.4363C68.6585 14.7315 69.2378 14.8792 69.824 14.8635C71.1791 14.8635 71.8821 14.154 71.8821 13.3483C71.8821 12.4304 70.5703 12.2219 69.1327 11.9253C67.212 11.5244 65.2049 10.8671 65.2049 8.50205C65.2049 6.6862 66.8978 5.01065 69.5687 5.0307C71.67 5.0307 73.2294 5.8805 74.1131 7.25942L72.1296 8.3858C71.8514 7.96548 71.4727 7.62452 71.0294 7.39515C70.5861 7.16579 70.0928 7.05561 69.5962 7.07502C68.3079 7.07502 67.6519 7.72039 67.6519 8.45394C67.6519 9.27969 68.6928 9.51219 70.3189 9.87696C72.1728 10.2778 74.2742 10.9111 74.2742 13.3002C74.2742 14.9036 72.9191 17.0241 69.7062 17C67.3495 17 65.7038 16.034 64.7572 14.3344" fill="white" fill-opacity="0.8"/>
<path d="M80.7861 11.6727L78.8851 13.7852V16.7755H76.4892V0H78.8851V10.9833L83.9716 5.28319H86.8899L82.479 10.2016L86.9999 16.7755H84.2897L80.7861 11.6727Z" fill="white" fill-opacity="0.8"/>
<path d="M30.3734 5.05479C27.5258 5.05479 25.1416 6.93878 25.1416 10.0654V16.7756H27.5847V10.362C27.5847 8.47804 28.6452 7.35165 30.4559 7.35165C32.2666 7.35165 33.17 8.47804 33.17 10.362V16.7756H35.6012V10.0614C35.6012 6.93477 33.2171 5.05078 30.3695 5.05078" fill="white" fill-opacity="0.8"/>
</g>
</g>
<defs>
<clipPath id="clip0_138_8593">
<rect width="87" height="17" fill="white"/>
</clipPath>
<clipPath id="clip1_138_8593">
<rect width="87" height="17" fill="white"/>
</clipPath>
</defs>
</svg>
